#!OML:ASF F:\VICON\USERDATA\INSTALL\rory3\rory3.ASF
:FULLY-SPECIFIED
:DEGREES
1356
root -5.41762 17.9456 17.0524 409.794 -98.4189 -52.9076
lowerback 12.6259 1.26669 -4.74245
upperback 1.49177 0.859782 -1.27399
thorax -5.56634 0.474822 1.19114
lowerneck -14.1692 -4.96077 -12.511
upperneck 37.8998 -8.38111 7.33588
head 17.0592 -4.86205 3.77829
rclavicle -1.75676e-014 -1.82882e-014
rhumerus -36.8082 -14.6202 -75.726
rradius 25.8725
rwrist 10.9053
rhand -14.7235 8.3141
rfingers 7.12502
rthumb 11.4314 -21.3543
lclavicle -1.75676e-014 -1.82882e-014
lhumerus -36.2386 6.39846 79.973
lradius 30.846
lwrist -6.86917
lhand -16.2631 24.4231
lfingers 7.12502
lthumb 9.94635 54.1682
rfemur -16.7951 -6.7369 15.467
rtibia 68.3778
rfoot -3.18148 -9.86628
rtoes 14.688
lfemur -1.98825 0.13552 -25.9859
ltibia 8.82297
lfoot -0.251632 -5.05096
ltoes -13.0153
1357
root -5.51555 17.944 17.0742 408.577 -99.0714 -51.5029
lowerback 12.4693 1.24705 -5.2087
upperback 1.42211 0.776259 -1.29651
thorax -5.55472 0.444818 1.44533
lowerneck -14.2672 -4.88561 -12.4423
upperneck 37.9841 -8.23085 7.17215
head 17.0913 -4.8161 3.7198
rclavicle -3.47873e-015 -1.51076e-014
rhumerus -36.9508 -14.2701 -75.7884
rradius 26.2293
rwrist 10.2443
rhand -14.8413 8.06586
rfingers 7.12502
rthumb 11.3179 -21.6088
lclavicle -3.47873e-015 -1.51076e-014
lhumerus -36.3569 6.92192 79.7219
lradius 31.1359
lwrist -6.47583
lhand -16.0661 24.4431
lfingers 7.12502
lthumb 10.1364 54.179
rfemur -18.0599 -7.22294 15.1302
rtibia 68.2379
rfoot -4.09736 -10.0534
rtoes 15.7874
lfemur -2.28897 0.2906 -26.5316
ltibia 9.71495
lfoot -0.724031 -4.30137
ltoes -13.5047
1358
root -5.61374 17.9355 17.0924 405.912 -99.4647 -48.8025
lowerback 12.3806 1.22586 -5.35904
upperback 1.48381 0.742973 -1.17712
thorax -5.44148 0.429384 1.66305
lowerneck -14.4731 -4.85712 -12.4744
upperneck 38.0555 -8.08738 6.99368
head 17.1523 -4.783 3.66912
rclavicle 1.6201e-014 0
rhumerus -36.947 -14.4621 -75.5753
rradius 26.52
rwrist 10.2788
rhand -14.5449 8.14799
rfingers 7.12502
rthumb 11.6037 -21.5107
lclavicle 1.6201e-014 0
lhumerus -36.2981 7.58761 79.5779
lradius 31.345
lwrist -6.28549
lhand -15.945 24.562
lfingers 7.12502
lthumb 10.2532 54.2921
rfemur -19.0364 -7.69213 15.2313
rtibia 67.8728
rfoot -5.06286 -10.2039
rtoes 16.1301
lfemur -2.42531 0.466139 -26.6676
ltibia 10.713
lfoot -1.33161 -3.57292
ltoes -13.4258
1359
root -5.71119 17.9217 17.113 403.305 -99.8681 -46.2279
lowerback 12.3858 1.22161 -5.37325
upperback 1.55728 0.737436 -1.14308
thorax -5.3669 0.423337 1.7086
lowerneck -14.6039 -4.81892 -12.4529
upperneck 38.0742 -8.02872 6.99908
head 17.1854 -4.75468 3.67714
rclavicle 4.52235e-015 2.18663e-014
rhumerus -36.9998 -14.7395 -75.4768
rradius 26.9016
rwrist 10.2254
rhand -14.1283 8.30677
rfingers 7.12502
rthumb 12.0053 -21.3289
lclavicle 4.52235e-015 2.18663e-014
lhumerus -36.1118 7.63053 79.5422
lradius 31.4298
lwrist -5.6518
lhand -16.2316 24.6719
lfingers 7.12502
lthumb 9.97672 54.4155
rfemur -19.8956 -8.17399 15.3608
rtibia 67.3444
rfoot -5.94555 -10.2716
rtoes 14.8377
lfemur -2.54963 0.459412 -26.7903
ltibia 11.861
lfoot -2.11296 -2.64206
ltoes -13.6753
1360
root -5.80511 17.9057 17.1343 401.246 -100.369 -44.1483
lowerback 12.3863 1.17271 -5.45563
upperback 1.5712 0.655913 -1.20337
thorax -5.34715 0.382609 1.70557
lowerneck -14.6149 -4.71446 -12.3419
upperneck 38.0312 -7.95768 7.11376
head 17.1516 -4.69822 3.72244
rclavicle 3.23025e-015 -2.06736e-014
rhumerus -36.9744 -14.3597 -75.8636
rradius 27.2252
rwrist 9.10933
rhand -14.5681 8.44823
rfingers 7.12502
rthumb 11.5813 -21.2118
lclavicle 3.23025e-015 -2.06736e-014
lhumerus -36.0141 7.02087 79.5728
lradius 31.6194
lwrist -4.26125
lhand -16.6084 25.0731
lfingers 7.12502
lthumb 9.6132 54.8338
rfemur -20.8099 -8.61957 15.4532
rtibia 66.6608
rfoot -6.83603 -10.5483
rtoes 12.5283
lfemur -2.79483 0.604788 -27.0062
ltibia 13.0675
lfoot -2.88427 -1.86515
ltoes -14.0802
1361
root -5.90012 17.8864 17.1538 399.632 -100.912 -42.4871
lowerback 12.2914 1.06854 -5.66144
upperback 1.60644 0.491334 -1.27042
thorax -5.24696 0.300918 1.77984
lowerneck -14.6914 -4.56224 -12.0664
upperneck 38.0074 -7.80783 7.10262
head 17.1146 -4.60087 3.69522
rclavicle -4.16951e-014 2.62396e-014
rhumerus -36.7753 -13.6598 -76.4718
rradius 27.4606
rwrist 7.5932
rhand -15.5188 8.74803
rfingers 7.12502
rthumb 10.6643 -20.9613
lclavicle -4.16951e-014 2.62396e-014
lhumerus -35.9408 6.77484 79.4117
lradius 31.8483
lwrist -3.28418
lhand -16.6588 25.351
lfingers 7.12502
lthumb 9.5646 55.1139
rfemur -21.6882 -9.04634 15.4901
rtibia 65.8121
rfoot -7.87489 -10.6977
rtoes 11.2959
lfemur -3.06748 0.900641 -27.2683
ltibia 14.229
lfoot -3.54704 -1.24641
ltoes -14.1645
